<svg width="98" height="39" viewBox="0 0 98 39" fill="none" xmlns="http://www.w3.org/2000/svg">
<path d="M25.8712 31.0766C25.0873 31.0766 24.2861 30.9735 23.4898 30.7701C22.503 30.5195 21.6831 30.0876 21.0527 29.4862C20.411 28.874 19.9499 28.0711 19.6825 27.1001C19.116 25.0383 19.0829 22.9786 19.5842 20.9782C19.8347 19.9775 20.3038 19.1524 20.9785 18.5258C21.6228 17.9273 22.4717 17.4938 23.5019 17.2374C24.8022 16.9128 26.1776 16.7551 27.7066 16.7551C28.8017 16.7551 29.9577 16.8334 31.3445 17.0015C31.436 17.0122 31.528 17.026 31.617 17.0393L31.6198 17.0397C31.7307 17.0563 31.8451 17.0734 31.9577 17.0843C31.9678 17.0853 31.9776 17.0858 31.9877 17.0858C32.0282 17.0858 32.0715 17.0781 32.1262 17.0684C32.1613 17.0621 32.1996 17.0553 32.2445 17.0489C32.2445 16.8585 32.2533 16.6572 32.2611 16.4797C32.2803 16.0327 32.3003 15.5707 32.2091 15.1392C32.1251 14.7467 31.8083 14.2249 31.4428 14.0663C30.7197 13.7533 29.8708 13.4333 29.0584 13.4333C29.0436 13.4333 29.029 13.4334 29.0144 13.4336C27.3428 13.4615 25.6458 13.5751 24.0046 13.685C23.3206 13.7308 22.6133 13.7781 21.9143 13.8187C21.8688 13.8212 21.8206 13.8223 21.7628 13.8223C21.7156 13.8223 21.6661 13.8216 21.6117 13.8208L21.6093 13.8208C21.5447 13.8199 21.4714 13.8187 21.3877 13.8187C21.3877 13.4206 21.387 13.0181 21.3862 12.6288L21.3866 12.6264C21.3839 11.2852 21.3807 9.89853 21.4111 8.54173C21.4148 8.38722 21.7494 8.10605 21.9537 8.0859C22.4772 8.03133 23.0046 7.97419 23.5147 7.91898C25.5226 7.70152 27.5989 7.47666 29.647 7.38248C29.8782 7.37233 30.1143 7.36719 30.3486 7.36719C31.5689 7.36719 32.7766 7.50193 33.9381 7.76761C35.6053 8.14625 36.905 8.89955 37.801 10.0065C38.7022 11.1198 39.174 12.565 39.2031 14.3022C39.2671 18.0607 39.2502 21.8845 39.2339 25.5824V25.5856L39.2337 25.6316C39.2271 27.1484 39.2202 28.7169 39.219 30.2592C39.2241 30.3114 39.2107 30.3591 39.1903 30.4313C39.1806 30.4659 39.1683 30.509 39.1561 30.5619H32.7552C32.6812 30.0642 32.6111 29.577 32.5434 29.1059L32.4882 28.7229C32.2305 28.8691 31.9783 29.0166 31.7346 29.1593C31.2279 29.4557 30.7505 29.735 30.2521 29.9883C28.823 30.7105 27.3491 31.0766 25.8712 31.0766ZM29.1951 21.4515C29.1335 21.4515 29.0721 21.4515 29.0107 21.4518C28.3153 21.4545 27.7372 21.4726 27.1914 21.5087C27.1429 21.512 27.0949 21.5168 27.0485 21.5229L27.0409 21.5239L27.0345 21.5248L27.0274 21.5258L27.0203 21.5268C26.8649 21.5492 26.7229 21.5881 26.598 21.6426C26.5971 21.6428 26.5962 21.6433 26.5955 21.6436C26.5909 21.6456 26.5861 21.6477 26.5816 21.6497C25.9928 21.9153 25.7348 22.5566 25.7924 23.6107C25.8554 24.7393 26.2889 25.1983 27.3915 25.3043C27.4337 25.3083 27.4758 25.3118 27.5179 25.3151C27.7428 25.3335 27.9713 25.3428 28.197 25.3428C29.398 25.3428 30.6235 25.0774 31.8396 24.5539C32.0281 24.4733 32.2364 24.1698 32.2523 23.9527C32.2852 23.4327 32.2797 22.9125 32.2734 22.3101L32.2731 22.2863C32.2705 22.0311 32.2678 21.7673 32.2678 21.4811C32.2674 21.4811 32.2667 21.4811 32.2662 21.4811C31.7416 21.4811 31.2176 21.4735 30.7108 21.4662L30.7021 21.466L30.6933 21.4659C30.2004 21.4588 29.6909 21.4515 29.1951 21.4515Z" fill="#FF1816"/>
<path d="M70.7725 32.1703C72.1949 32.0957 73.4916 32.1193 74.7529 31.9228C75.2913 31.8403 75.8139 31.3609 76.2382 30.9562C76.6312 30.579 76.5958 30.0603 76.3875 29.518C73.6842 22.5238 71.0004 15.5217 68.3128 8.52359C68.242 8.33498 68.187 8.13852 68.1006 7.86739C68.3717 7.84382 68.5839 7.80452 68.8 7.80452C70.8904 7.80059 72.9808 7.82024 75.0712 7.7888C75.6095 7.78095 75.8296 7.94991 75.9711 8.46858C77.2402 13.062 78.5408 17.6514 79.8297 22.237C79.9004 22.4845 79.9711 22.7321 80.1008 23.1918C80.2422 22.7674 80.3326 22.5278 80.3994 22.2802C81.5979 17.7733 82.8159 13.2742 83.9712 8.75542C84.1716 7.98135 84.4859 7.75344 85.2757 7.77702C87.3622 7.84382 89.4487 7.80059 91.6727 7.80059C91.488 8.36642 91.3387 8.84187 91.1736 9.31339C88.5842 16.732 86.0105 24.1584 83.3818 31.5613C82.9888 32.6654 82.4073 33.7303 81.759 34.7087C80.364 36.807 78.2894 37.8482 75.8217 37.9936C74.3875 38.0761 72.9415 37.9032 71.4995 37.8404C70.9297 37.8168 70.7332 37.5417 70.749 36.9523C70.8 35.361 70.7725 33.7657 70.7725 32.1703Z" fill="#FF1816"/>
<path d="M17.0662 7.67305C17.0662 9.77132 17.0662 11.7713 17.0662 13.6299C15.4513 13.6299 13.8874 13.6024 12.3235 13.6378C11.2194 13.6653 10.1113 13.7399 9.015 13.8735C7.97372 14.0032 7.2743 14.6398 7.22715 15.7007C7.13285 17.8579 7.01497 20.0269 7.14856 22.1802C7.25858 23.9366 8.01694 24.4631 9.78908 24.5378C12.1781 24.636 14.5239 24.3413 16.8501 23.8226C17.0976 23.7676 17.3491 23.7205 17.7224 23.6458C17.7224 23.9798 17.7224 24.2509 17.7224 24.5221C17.7224 25.6066 17.7224 26.691 17.7224 27.7755C17.7224 29.528 17.7381 29.5752 16.0682 30.0585C12.7636 31.0172 9.40007 31.4338 5.98155 30.7618C3.3096 30.2353 1.57676 28.6636 0.810544 26.0231C-0.0932038 22.8953 -0.0971331 19.7047 0.130768 16.5023C0.185779 15.7085 0.354741 14.9187 0.519773 14.1407C1.27813 10.6043 3.47856 8.52571 6.99139 7.79879C10.3195 7.11116 13.6595 7.32727 17.0662 7.67305Z" fill="#FF1816"/>
<path d="M66.2623 0C66.2623 10.1966 66.2623 20.3461 66.2623 30.5467C63.8772 30.5467 61.5982 30.5467 59.3506 30.5467C59.3506 20.3579 59.3506 10.2123 59.3506 0C61.7396 0 64.0147 0 66.2623 0Z" fill="#FF1816"/>
<path d="M56.8202 14.0363C55.1345 14.1306 53.5156 14.1777 51.9046 14.327C49.991 14.5039 49.995 14.5392 49.995 16.4096C49.995 18.2682 49.995 20.1267 49.995 21.9893C49.995 24.8223 49.995 27.6514 49.995 30.5434C47.5391 30.5434 45.2837 30.5434 43.04 30.5434C43.04 22.9991 43.04 15.4587 43.04 7.80435C44.1992 7.80435 45.2483 7.80435 46.2975 7.80435C47.1226 7.80435 47.9517 7.84364 48.7729 7.79256C49.4134 7.75327 49.6649 7.98903 49.6531 8.61379C49.6492 8.88885 49.7356 9.16783 49.7985 9.54505C52.0107 8.33481 54.2544 7.45857 56.8163 7.50572C56.8202 9.74544 56.8202 11.9026 56.8202 14.0363Z" fill="#FF1816"/>
<path d="M91.0869 24.252C93.3227 24.252 95.5035 24.252 97.7354 24.252C97.7354 26.3659 97.7354 28.4406 97.7354 30.5585C95.5114 30.5585 93.3306 30.5585 91.0869 30.5585C91.0869 28.476 91.0869 26.4013 91.0869 24.252Z" fill="#FF1816"/>
</svg>
